
<svg width="360px" height="74px" viewBox="1 -4 360 74" version="1.1" xmlns="http://www.w3.org/2000/svg" xmlns:xlink="http://www.w3.org/1999/xlink">
    <!-- Generator: Sketch 42 (36781) - http://www.bohemiancoding.com/sketch -->
    <desc>Created with Sketch.</desc>
    <defs></defs>
    <g id="Tattoo_fc0006" stroke="none" stroke-width="1" fill="none" fill-rule="evenodd" transform="translate(3.000000, -2.000000)">
        <g id="Group">
            <g stroke-linecap="round" id="Shape" stroke-width="4" stroke="#1565C0" stroke-linejoin="round">
                <polyline points="0 10 10 10 10 0"></polyline>
                <polyline points="6 16 16 16 16 6"></polyline>
                <polyline points="60 70 70 70 70 60"></polyline>
            </g>
            <path d="M42,68.004 C42,68.004 14,54.004 14,34.004 C14,30.004 18,18.004 28,18.004 C38,18.004 42,26.004 42,26.004 C42,26.004 46,18.004 56,18.004 C66,18.004 70,30.004 70,34.004 C70,54.004 42,68.004 42,68.004 Z" id="Shape" fill="#FF80AB" fill-rule="nonzero"></path>
            <g transform="translate(12.000000, 16.000000)" id="Shape" fill-rule="nonzero" fill="#FF4081">
                <path d="M30.002,54.238 L28.628,53.546 C27.652,53.03 27.276,51.822 27.792,50.842 C28.224,50.026 29.136,49.622 30,49.824 C30.864,49.62 31.774,50.026 32.208,50.842 C32.724,51.82 32.348,53.03 31.372,53.546 L30.002,54.238 Z"></path>
                <path d="M25.128,51.196 C24.764,51.196 24.398,51.098 24.068,50.89 L23.172,50.32 C22.246,49.716 21.986,48.478 22.588,47.552 C23.19,46.628 24.43,46.368 25.356,46.968 L26.192,47.504 C27.128,48.09 27.41,49.324 26.824,50.26 C26.446,50.864 25.794,51.196 25.128,51.196 Z M20.038,47.718 C19.624,47.718 19.206,47.592 18.85,47.326 L18.004,46.69 C17.128,46.018 16.96,44.762 17.632,43.886 C18.304,43.01 19.56,42.844 20.436,43.514 L21.232,44.112 C22.12,44.77 22.306,46.022 21.648,46.91 C21.254,47.44 20.65,47.718 20.038,47.718 Z M15.244,43.848 C14.774,43.848 14.302,43.684 13.922,43.348 L13.132,42.64 C12.316,41.896 12.258,40.63 13.002,39.814 C13.746,38.998 15.01,38.938 15.828,39.684 L16.568,40.348 C17.398,41.078 17.476,42.342 16.746,43.17 C16.35,43.62 15.798,43.848 15.244,43.848 Z M10.846,39.536 C10.302,39.536 9.762,39.316 9.366,38.884 C9.128,38.622 8.892,38.356 8.658,38.09 C7.93,37.26 8.014,35.996 8.846,35.268 C9.678,34.54 10.942,34.624 11.668,35.458 L12.324,36.19 C13.068,37.008 13.008,38.272 12.192,39.016 C11.81,39.364 11.328,39.536 10.846,39.536 Z M7.014,34.72 C6.376,34.72 5.748,34.416 5.36,33.846 C5.154,33.548 4.954,33.244 4.758,32.938 C4.164,32.006 4.436,30.77 5.368,30.176 C6.3,29.582 7.536,29.856 8.13,30.786 C8.304,31.058 8.482,31.326 8.664,31.592 C9.288,32.504 9.052,33.748 8.14,34.372 C7.794,34.608 7.402,34.72 7.014,34.72 Z M4.022,29.344 C3.248,29.344 2.512,28.892 2.186,28.136 C2.04,27.8 1.902,27.46 1.77,27.12 C1.368,26.09 1.878,24.93 2.908,24.53 C3.934,24.124 5.096,24.636 5.496,25.666 C5.612,25.962 5.732,26.256 5.858,26.548 C6.296,27.562 5.828,28.74 4.816,29.176 C4.556,29.292 4.288,29.344 4.022,29.344 Z M2.274,23.458 C1.308,23.458 0.458,22.756 0.302,21.772 C0.244,21.404 0.192,21.036 0.15,20.664 C0.026,19.566 0.816,18.578 1.914,18.454 C2.984,18.326 4,19.12 4.124,20.218 C4.16,20.526 4.202,20.836 4.25,21.142 C4.424,22.232 3.68,23.258 2.59,23.432 C2.486,23.45 2.38,23.458 2.274,23.458 Z M2.366,17.342 C2.216,17.342 2.064,17.326 1.912,17.29 C0.836,17.04 0.166,15.966 0.414,14.89 C0.496,14.536 0.59,14.168 0.7,13.792 C1.006,12.73 2.108,12.118 3.176,12.424 C4.238,12.73 4.848,13.84 4.544,14.9 C4.456,15.206 4.378,15.504 4.312,15.792 C4.098,16.718 3.274,17.342 2.366,17.342 Z M4.586,11.61 C4.256,11.61 3.924,11.528 3.616,11.358 C2.65,10.82 2.302,9.604 2.84,8.638 C3.022,8.31 3.214,7.986 3.414,7.664 C3.998,6.728 5.232,6.442 6.17,7.03 C7.106,7.614 7.39,8.85 6.804,9.786 C6.64,10.048 6.484,10.316 6.336,10.582 C5.97,11.24 5.29,11.61 4.586,11.61 Z M26.362,7.67 C25.914,7.67 25.462,7.52 25.088,7.21 C24.862,7.024 24.624,6.836 24.374,6.652 C23.484,6 23.29,4.748 23.942,3.856 C24.594,2.966 25.842,2.772 26.738,3.424 C27.054,3.656 27.356,3.892 27.64,4.13 C28.492,4.834 28.608,6.094 27.906,6.946 C27.508,7.424 26.938,7.67 26.362,7.67 Z M8.418,6.828 C7.848,6.828 7.284,6.586 6.888,6.118 C6.176,5.274 6.284,4.012 7.128,3.3 C7.426,3.048 7.736,2.806 8.054,2.576 C8.954,1.93 10.2,2.132 10.846,3.028 C11.492,3.924 11.29,5.174 10.394,5.82 C10.156,5.99 9.928,6.17 9.704,6.358 C9.332,6.672 8.874,6.828 8.418,6.828 Z M20.994,4.74 C20.796,4.74 20.596,4.71 20.4,4.65 C20.12,4.562 19.83,4.484 19.534,4.412 C18.46,4.152 17.8,3.07 18.06,1.996 C18.32,0.922 19.4,0.264 20.476,0.522 C20.856,0.614 21.228,0.718 21.588,0.828 C22.642,1.156 23.232,2.278 22.904,3.332 C22.636,4.19 21.846,4.74 20.994,4.74 Z M13.894,4.19 C12.944,4.19 12.102,3.512 11.928,2.544 C11.732,1.456 12.456,0.418 13.542,0.22 C13.93,0.15 14.326,0.096 14.732,0.06 C15.838,-0.024 16.806,0.772 16.904,1.872 C17.004,2.972 16.192,3.944 15.092,4.044 C14.806,4.07 14.526,4.108 14.252,4.158 C14.13,4.18 14.01,4.19 13.894,4.19 Z"></path>
                <path d="M29.978,14.458 L28.206,10.89 C28.196,10.872 28.142,10.768 28.046,10.608 C27.474,9.662 27.776,8.434 28.722,7.862 C29.12,7.62 29.576,7.536 30,7.588 C30.424,7.536 30.878,7.62 31.278,7.862 C32.224,8.434 32.526,9.662 31.954,10.608 C31.858,10.768 31.804,10.872 31.79,10.9 L29.978,14.458 Z"></path>
                <path d="M34.918,51.164 C34.254,51.164 33.606,50.834 33.224,50.232 C32.634,49.298 32.914,48.062 33.848,47.472 L34.7,46.93 C35.632,46.334 36.866,46.598 37.466,47.528 C38.064,48.456 37.796,49.694 36.868,50.294 L35.986,50.856 C35.652,51.064 35.284,51.164 34.918,51.164 Z M40.01,47.684 C39.396,47.684 38.794,47.404 38.4,46.876 C37.744,45.988 37.93,44.736 38.816,44.078 L39.61,43.48 C40.49,42.81 41.744,42.976 42.414,43.852 C43.086,44.728 42.92,45.984 42.042,46.656 L41.2,47.292 C40.84,47.556 40.424,47.684 40.01,47.684 Z M44.798,43.806 C44.246,43.806 43.696,43.578 43.3,43.132 C42.568,42.304 42.646,41.04 43.472,40.308 L44.212,39.644 C45.024,38.898 46.29,38.952 47.036,39.77 C47.782,40.584 47.728,41.848 46.91,42.594 L46.122,43.304 C45.744,43.64 45.272,43.806 44.798,43.806 Z M49.196,39.49 C48.716,39.49 48.236,39.318 47.852,38.97 C47.034,38.228 46.974,36.964 47.716,36.146 C47.936,35.902 48.156,35.656 48.372,35.408 C49.096,34.574 50.364,34.49 51.194,35.214 C52.026,35.938 52.114,37.202 51.388,38.036 C51.156,38.304 50.918,38.57 50.678,38.832 C50.282,39.27 49.738,39.49 49.196,39.49 Z M53.024,34.668 C52.638,34.668 52.246,34.556 51.902,34.324 C50.988,33.702 50.75,32.458 51.368,31.544 C51.552,31.274 51.73,31.004 51.904,30.732 C52.5,29.802 53.734,29.53 54.668,30.124 C55.598,30.72 55.87,31.956 55.276,32.888 C55.082,33.188 54.886,33.49 54.682,33.79 C54.294,34.362 53.664,34.668 53.024,34.668 Z M56.004,29.29 C55.74,29.29 55.472,29.24 55.216,29.128 C54.2,28.692 53.73,27.516 54.166,26.502 C54.292,26.21 54.41,25.914 54.526,25.62 C54.924,24.588 56.086,24.078 57.112,24.476 C58.144,24.874 58.654,26.032 58.256,27.062 C58.126,27.404 57.986,27.742 57.842,28.078 C57.518,28.836 56.78,29.29 56.004,29.29 Z M57.734,23.4 C57.628,23.4 57.52,23.39 57.412,23.372 C56.322,23.196 55.582,22.168 55.758,21.078 C55.806,20.776 55.848,20.472 55.882,20.164 C56.002,19.066 56.97,18.272 58.088,18.392 C59.186,18.512 59.978,19.498 59.86,20.598 C59.818,20.974 59.77,21.348 59.71,21.718 C59.546,22.702 58.7,23.4 57.734,23.4 Z M57.622,17.286 C56.712,17.286 55.89,16.662 55.674,15.738 C55.61,15.452 55.53,15.156 55.442,14.852 C55.134,13.792 55.742,12.682 56.802,12.372 C57.876,12.056 58.974,12.672 59.282,13.732 C59.394,14.11 59.49,14.48 59.574,14.834 C59.822,15.91 59.152,16.984 58.076,17.234 C57.922,17.268 57.772,17.286 57.622,17.286 Z M55.386,11.56 C54.688,11.56 54.01,11.194 53.644,10.544 C53.492,10.274 53.334,10.006 53.166,9.74 C52.578,8.806 52.86,7.57 53.794,6.982 C54.73,6.396 55.964,6.676 56.552,7.61 C56.752,7.928 56.94,8.25 57.124,8.572 C57.668,9.534 57.33,10.754 56.368,11.298 C56.058,11.478 55.72,11.56 55.386,11.56 Z M33.592,7.71 C33.022,7.71 32.456,7.468 32.06,6.998 C31.348,6.154 31.456,4.892 32.3,4.18 C32.588,3.938 32.89,3.7 33.208,3.464 C34.098,2.808 35.348,2.998 36.004,3.886 C36.66,4.774 36.47,6.026 35.582,6.682 C35.334,6.864 35.098,7.052 34.876,7.238 C34.504,7.556 34.044,7.71 33.592,7.71 Z M51.536,6.79 C51.084,6.79 50.63,6.638 50.254,6.324 C50.032,6.138 49.8,5.96 49.562,5.79 C48.664,5.148 48.454,3.9 49.096,3 C49.74,2.1 50.984,1.89 51.888,2.534 C52.208,2.762 52.52,3.004 52.822,3.256 C53.67,3.964 53.78,5.226 53.074,6.072 C52.676,6.544 52.108,6.79 51.536,6.79 Z M38.95,4.756 C38.098,4.756 37.31,4.21 37.042,3.354 C36.712,2.3 37.298,1.178 38.35,0.846 C38.71,0.732 39.08,0.63 39.462,0.536 C40.534,0.274 41.618,0.928 41.88,2 C42.144,3.074 41.49,4.156 40.416,4.42 C40.122,4.492 39.832,4.574 39.55,4.662 C39.35,4.726 39.146,4.756 38.95,4.756 Z M46.044,4.178 C45.928,4.178 45.812,4.168 45.694,4.148 C45.42,4.1 45.142,4.064 44.858,4.04 C43.756,3.946 42.94,2.978 43.034,1.878 C43.128,0.778 44.11,-0.03 45.194,0.054 C45.602,0.09 45.998,0.14 46.39,0.21 C47.478,0.402 48.204,1.44 48.012,2.528 C47.842,3.496 46.998,4.178 46.044,4.178 Z"></path>
            </g>
            <g transform="translate(8.000000, 8.000000)" id="Shape" fill-rule="nonzero" fill="#1A237E">
                <path d="M11.128,11.298 C11.426,11.046 11.736,10.804 12.054,10.574 C12.366,10.35 12.718,10.264 13.074,10.238 L3.912,1.086 C3.132,0.306 1.866,0.304 1.084,1.088 C0.304,1.87 0.304,3.134 1.086,3.916 L10.496,13.316 C10.316,12.596 10.524,11.808 11.128,11.298 Z"></path>
                <path d="M60,60 L60,57.164 L38.184,35.356 C37.402,34.574 36.138,34.574 35.356,35.356 C34.574,36.138 34.574,37.402 35.356,38.184 L57.18,60 L60,60 Z"></path>
            </g>
        </g>
    </g>
    <g id="Tattoo_fc0006" stroke="none" stroke-width="1" fill="none" fill-rule="evenodd" transform="translate(172.000000, 14.000000)">
        <path d="M4,0 L4,4 L0,4 L0,8 L5.1875,8 L7.1875,10 C8.1875,9.2 9.0125,8.4 10.8125,8 L8,5.1875 L8,0 L4,0 Z M13.75,10 C13.475,10.025 13.2,10.0875 13,10.1875 C11.6,10.3875 10.1875,11 9.1875,12 C7.1875,13.6 6,16.025 6,18.625 C6,27.225 20.8,33.8 23,38 C23.8,36.4 26.375,34.3875 29.375,32.1875 L33.1875,36 L30,38 L32,40 L40,40 L40,32 L38,30 L36,33.1875 L32.625,29.8125 C36.425,26.6125 40,23.025 40,18.625 C40,13.825 36.225,10 31.625,10 C27.025,10 24.2,12.375 23,16.375 C22,12.375 19.225,10 14.625,10 C14.325,10 14.025,9.975 13.75,10 Z" id="Shape" fill="#FC0006" fill-rule="nonzero"></path>
    </g>
    <g id="Tattoo_fc0006" stroke="none" stroke-width="1" fill="none" fill-rule="evenodd" transform="translate(309.000000, 14.000000)">
        <path d="M6,0 L6,6 L0,6 L0,10 L7.125,10 L8.5625,11.4375 L11.4375,8.5625 L10,7.125 L10,0 L6,0 Z M13.4375,10.5625 L10.5625,13.4375 L11.875,14.75 L11.4375,15.1875 L11.375,15.25 L11.25,15.3125 L12.75,16.625 L12.9375,16.8125 L14.125,18.125 L14.25,18 L14.625,17.625 L14.8125,17.5 L15.25,17.1875 L15.4375,17.0625 L15.9375,16.8125 L16,16.8125 L16.1875,16.6875 L16.75,16.5 L17,16.4375 L17.6875,16.25 L17.875,16.1875 L18.0625,16.1875 L17.5,12.1875 L17.0625,12.25 L17,12.3125 L16.875,12.3125 L15.75,12.625 L15.625,12.625 L15.5625,12.6875 L15.5,12.6875 L13.4375,10.5625 Z M20.75,12 L20.5625,16 L20.9375,16.0625 L21.125,16.0625 L21.8125,16.125 L22,16.1875 L22.0625,16.1875 L23.4375,16.5625 L23.625,16.625 L23.75,16.6875 L24.75,17.1875 L24.875,17.25 L25.0625,17.3125 L25.625,16.1875 L27.1875,14 L27.0625,13.9375 L26.9375,13.8125 L26.8125,13.75 L25.1875,12.9375 L25,12.875 L24.8125,12.8125 L22.875,12.25 L22.75,12.25 L22.625,12.25 L21.5,12.0625 L21.375,12.0625 L21.3125,12.0625 L20.75,12 Z M39.125,12.0625 L38,12.125 L37.875,12.125 L37.75,12.1875 L36.0625,12.5 L35.9375,12.5625 L35.8125,12.625 L34.375,13.125 L34.25,13.1875 L34.125,13.25 L32.9375,13.875 L34.8125,17.4375 L35.8125,16.875 L35.875,16.875 L36.0625,16.75 L36.9375,16.4375 L37.125,16.375 L37.1875,16.375 L38.25,16.125 L38.3125,16.125 L39.4375,16.0625 L39.125,12.0625 Z M42.4375,12.1875 L41.8125,16.1875 L42.3125,16.25 L43,16.4375 L43.25,16.5 L43.8125,16.6875 L44,16.8125 L44.0625,16.8125 L44.5625,17.0625 L44.75,17.1875 L45.1875,17.5 L45.375,17.625 L45.875,18.125 L48.5,15.125 L47.875,14.5 L47.75,14.4375 L47.6875,14.375 L46.875,13.8125 L46.75,13.75 L46.625,13.6875 L45.75,13.1875 L45.625,13.125 L45.5,13.0625 L44.5,12.6875 L44.375,12.625 L44.25,12.625 L43.125,12.3125 L43,12.3125 L42.9375,12.25 L42.4375,12.1875 Z M29.75,16.1875 L26.75,18.8125 C27.688102,19.876112 28,20.6875 28,20.6875 L28.4375,22 L29.875,22 L30.125,22 L31.5,22 L31.9375,20.6875 C31.9375,20.6875 32.242392,19.875344 33.1875,18.8125 L30.25,16.1875 C30.0801,16.37856 30.14668,16.37484 30,16.5625 C29.85404,16.37396 29.9193,16.37944 29.75,16.1875 Z M50.6875,18.1875 L47,19.625 L47.625,21.3125 L47.875,22.4375 L47.875,22.5 L48,23.875 L48,24.125 L48,24.3125 L51.9375,24.625 L52,24.125 L52,24 L52,23.875 L51.875,22.1875 L51.875,22.0625 L51.8125,21.875 L51.4375,20.1875 L51.4375,20 L51.375,19.875 L50.6875,18.1875 Z M9.25,18.25 L8.625,19.875 L8.5625,20 L8.5625,20.1875 L8.1875,21.875 L8.125,22.0625 L8.125,22.1875 L8,23.875 L8,24 L8,24.125 L8.0625,24.6875 L12.0625,24.375 L12,24.125 L12,23.9375 L12,23.875 L12.125,22.5 L12.125,22.4375 L12.375,21.3125 L13,19.6875 L9.25,18.25 Z M29.4375,26.5625 L26.5625,29.4375 L30.5625,33.4375 L33.4375,30.5625 L29.4375,26.5625 Z M47.625,26.625 L47.1875,27.8125 L47.125,28 L46.5,29.1875 L46.4375,29.375 L45.625,30.75 L45.3125,31.25 L48.625,33.5 L49,32.875 L49.0625,32.8125 L49.125,32.75 L50,31.1875 L50.0625,31.125 L50.0625,31.0625 L50.8125,29.5 L50.8125,29.4375 L50.875,29.3125 L51.375,27.9375 L47.625,26.625 Z M12.4375,26.6875 L8.625,27.9375 L9,29 L9,29.125 L9.0625,29.1875 L9.6875,30.625 L9.75,30.6875 L9.8125,30.8125 L10.5625,32.25 L10.625,32.3125 L10.625,32.375 L11.375,33.5 L14.75,31.3125 L14.0625,30.3125 L14,30.1875 L13.375,29 L13.3125,28.875 L12.8125,27.75 L12.75,27.5625 L12.4375,26.6875 Z M35.4375,32.5625 L32.5625,35.4375 L36.5625,39.4375 L39.4375,36.5625 L35.4375,32.5625 Z M43.6875,33.375 L42.5625,34.75 L42.4375,34.875 L39.9375,37.4375 L41.25,38.75 L39.25,40.75 L37.9375,39.25 L37.375,39.75 L37.3125,39.8125 L34.8125,41.8125 L34.75,41.875 L33.625,42.75 L36,45.9375 L37.25,45 L37.3125,45 L39.9375,42.8125 L42.5625,45.4375 L45.4375,42.5625 L42.9375,40.0625 L45.4375,37.5 L45.5,37.4375 L45.5625,37.375 L46.75,35.875 L43.6875,33.375 Z M16.375,33.4375 L13.1875,35.875 L13.8125,36.625 L13.875,36.75 L13.9375,36.8125 L16.3125,39.375 L16.375,39.4375 L16.4375,39.5 L17.3125,40.3125 L20.0625,37.375 L19.25,36.625 L19.25,36.5625 L19.1875,36.5625 L16.9375,34.1875 L16.875,34.0625 L16.375,33.4375 Z M22.0625,39.25 L19.5,42.3125 L21.5625,44.0625 L21.625,44.125 L24,45.9375 L26.4375,42.8125 L24.125,41 L24.0625,40.9375 L22.0625,39.25 Z M48,42 L48,45.125 L47.4375,44.5625 L44.5625,47.4375 L45.125,48 L42,48 L42,52 L50,52 L52,52 L52,50 L52,42 L48,42 Z M28.625,44.375 L26.375,47.6875 C27.931242,48.772154 28.9375,49.375 28.9375,49.375 L30,50.0625 L31.0625,49.375 C31.0625,49.375 32.068758,48.772154 33.625,47.6875 L31.375,44.375 C30.534428,44.960854 30.412638,45.045796 30,45.3125 C29.587362,45.045796 29.465572,44.960854 28.625,44.375 Z" id="Shape" fill="#FC0006" fill-rule="nonzero"></path>
    </g>
</svg>
